<svg width="23" height="7" viewBox="0 0 23 7" fill="none" xmlns="http://www.w3.org/2000/svg">
<path d="M5.20351 2.89301V0.964702L3.53145 0L1.85938 0.964702V2.89301L3.53145 3.85771L5.20351 2.89301Z" fill="#FFB000"/>
<path d="M3.34413 6.02875V4.10044L1.67207 3.13574L0 4.10044V6.02875L1.67207 6.99345L3.34413 6.02875Z" fill="#FFB000"/>
<path d="M6.4794 6V1.63636H7.11648V3.25781H7.15483C7.19176 3.18963 7.24503 3.1108 7.31463 3.02131C7.38423 2.93182 7.48082 2.85369 7.6044 2.78693C7.72798 2.71875 7.89134 2.68466 8.09446 2.68466C8.35866 2.68466 8.59446 2.75142 8.80185 2.88494C9.00923 3.01847 9.17188 3.21094 9.28977 3.46236C9.40909 3.71378 9.46875 4.01634 9.46875 4.37003C9.46875 4.72372 9.4098 5.02699 9.2919 5.27983C9.17401 5.53125 9.01207 5.72514 8.80611 5.86151C8.60014 5.99645 8.36506 6.06392 8.10085 6.06392C7.90199 6.06392 7.73935 6.03054 7.61293 5.96378C7.48793 5.89702 7.38991 5.81889 7.31889 5.7294C7.24787 5.63991 7.19318 5.56037 7.15483 5.49077H7.10156V6H6.4794ZM7.10369 4.36364C7.10369 4.59375 7.13707 4.79545 7.20384 4.96875C7.2706 5.14205 7.36719 5.2777 7.49361 5.37571C7.62003 5.4723 7.77486 5.5206 7.9581 5.5206C8.14844 5.5206 8.30753 5.47017 8.43537 5.36932C8.56321 5.26705 8.6598 5.12855 8.72514 4.95384C8.7919 4.77912 8.82528 4.58239 8.82528 4.36364C8.82528 4.14773 8.79261 3.95384 8.72727 3.78196C8.66335 3.61009 8.56676 3.47443 8.4375 3.375C8.30966 3.27557 8.14986 3.22585 7.9581 3.22585C7.77344 3.22585 7.61719 3.27344 7.48935 3.36861C7.36293 3.46378 7.26705 3.59659 7.2017 3.76705C7.13636 3.9375 7.10369 4.13636 7.10369 4.36364ZM11.1146 6.06605C10.7922 6.06605 10.5145 5.99716 10.2815 5.85938C10.05 5.72017 9.87103 5.52486 9.74461 5.27344C9.61961 5.0206 9.55711 4.72443 9.55711 4.38494C9.55711 4.04972 9.61961 3.75426 9.74461 3.49858C9.87103 3.2429 10.0472 3.04332 10.273 2.89986C10.5003 2.75639 10.7659 2.68466 11.0699 2.68466C11.2546 2.68466 11.4335 2.7152 11.6068 2.77628C11.7801 2.83736 11.9357 2.93324 12.0734 3.06392C12.2112 3.1946 12.3199 3.36435 12.3994 3.57315C12.479 3.78054 12.5188 4.03267 12.5188 4.32955V4.5554H9.91719V4.07812H11.8945C11.8945 3.91051 11.8604 3.76207 11.7922 3.63281C11.724 3.50213 11.6281 3.39915 11.5046 3.32386C11.3824 3.24858 11.2389 3.21094 11.0742 3.21094C10.8952 3.21094 10.7389 3.25497 10.6054 3.34304C10.4733 3.42969 10.371 3.54332 10.2986 3.68395C10.2276 3.82315 10.1921 3.97443 10.1921 4.13778V4.51065C10.1921 4.7294 10.2304 4.91548 10.3071 5.06889C10.3852 5.2223 10.4939 5.33949 10.6331 5.42045C10.7723 5.5 10.935 5.53977 11.121 5.53977C11.2418 5.53977 11.3519 5.52273 11.4513 5.48864C11.5507 5.45312 11.6367 5.40057 11.7091 5.33097C11.7815 5.26136 11.8369 5.17543 11.8753 5.07315L12.4783 5.18182C12.43 5.35937 12.3433 5.51491 12.2183 5.64844C12.0948 5.78054 11.9392 5.88352 11.7517 5.95739C11.5656 6.02983 11.3533 6.06605 11.1146 6.06605ZM14.1561 6.06605C13.8337 6.06605 13.556 5.99716 13.323 5.85938C13.0915 5.72017 12.9125 5.52486 12.7861 5.27344C12.6611 5.0206 12.5986 4.72443 12.5986 4.38494C12.5986 4.04972 12.6611 3.75426 12.7861 3.49858C12.9125 3.2429 13.0887 3.04332 13.3145 2.89986C13.5418 2.75639 13.8074 2.68466 14.1114 2.68466C14.296 2.68466 14.475 2.7152 14.6483 2.77628C14.8216 2.83736 14.9771 2.93324 15.1149 3.06392C15.2527 3.1946 15.3614 3.36435 15.4409 3.57315C15.5205 3.78054 15.5602 4.03267 15.5602 4.32955V4.5554H12.9587V4.07812H14.936C14.936 3.91051 14.9019 3.76207 14.8337 3.63281C14.7655 3.50213 14.6696 3.39915 14.546 3.32386C14.4239 3.24858 14.2804 3.21094 14.1156 3.21094C13.9367 3.21094 13.7804 3.25497 13.6469 3.34304C13.5148 3.42969 13.4125 3.54332 13.3401 3.68395C13.269 3.82315 13.2335 3.97443 13.2335 4.13778V4.51065C13.2335 4.7294 13.2719 4.91548 13.3486 5.06889C13.4267 5.2223 13.5354 5.33949 13.6746 5.42045C13.8138 5.5 13.9764 5.53977 14.1625 5.53977C14.2833 5.53977 14.3933 5.52273 14.4928 5.48864C14.5922 5.45312 14.6781 5.40057 14.7506 5.33097C14.823 5.26136 14.8784 5.17543 14.9168 5.07315L15.5198 5.18182C15.4715 5.35937 15.3848 5.51491 15.2598 5.64844C15.1362 5.78054 14.9807 5.88352 14.7932 5.95739C14.6071 6.02983 14.3948 6.06605 14.1561 6.06605ZM15.7189 6V5.56321L17.4916 3.31108V3.28125H15.7764V2.72727H18.2864V3.19176L16.5818 5.41619V5.44602H18.346V6H15.7189ZM18.6176 6V2.72727H19.2547V6H18.6176ZM18.9394 2.2223C18.8286 2.2223 18.7334 2.18537 18.6539 2.11151C18.5757 2.03622 18.5367 1.94673 18.5367 1.84304C18.5367 1.73793 18.5757 1.64844 18.6539 1.57457C18.7334 1.49929 18.8286 1.46165 18.9394 1.46165C19.0502 1.46165 19.1446 1.49929 19.2228 1.57457C19.3023 1.64844 19.3421 1.73793 19.3421 1.84304C19.3421 1.94673 19.3023 2.03622 19.2228 2.11151C19.1446 2.18537 19.0502 2.2223 18.9394 2.2223ZM21.0423 6.06605C20.7199 6.06605 20.4422 5.99716 20.2092 5.85938C19.9777 5.72017 19.7987 5.52486 19.6723 5.27344C19.5473 5.0206 19.4848 4.72443 19.4848 4.38494C19.4848 4.04972 19.5473 3.75426 19.6723 3.49858C19.7987 3.2429 19.9748 3.04332 20.2007 2.89986C20.4279 2.75639 20.6936 2.68466 20.9976 2.68466C21.1822 2.68466 21.3612 2.7152 21.5345 2.77628C21.7078 2.83736 21.8633 2.93324 22.0011 3.06392C22.1389 3.1946 22.2476 3.36435 22.3271 3.57315C22.4066 3.78054 22.4464 4.03267 22.4464 4.32955V4.5554H19.8449V4.07812H21.8221C21.8221 3.91051 21.788 3.76207 21.7199 3.63281C21.6517 3.50213 21.5558 3.39915 21.4322 3.32386C21.3101 3.24858 21.1666 3.21094 21.0018 3.21094C20.8228 3.21094 20.6666 3.25497 20.5331 3.34304C20.401 3.42969 20.2987 3.54332 20.2262 3.68395C20.1552 3.82315 20.1197 3.97443 20.1197 4.13778V4.51065C20.1197 4.7294 20.1581 4.91548 20.2348 5.06889C20.3129 5.2223 20.4216 5.33949 20.5608 5.42045C20.7 5.5 20.8626 5.53977 21.0487 5.53977C21.1694 5.53977 21.2795 5.52273 21.3789 5.48864C21.4784 5.45312 21.5643 5.40057 21.6368 5.33097C21.7092 5.26136 21.7646 5.17543 21.8029 5.07315L22.4059 5.18182C22.3576 5.35937 22.271 5.51491 22.146 5.64844C22.0224 5.78054 21.8669 5.88352 21.6794 5.95739C21.4933 6.02983 21.2809 6.06605 21.0423 6.06605Z" fill="white"/>
</svg>
