<svg width="39" height="8" viewBox="0 0 39 8" fill="none" xmlns="http://www.w3.org/2000/svg">
<path d="M10.1037 3.0554H9.43892C9.41335 2.91335 9.36577 2.78835 9.29616 2.6804C9.22656 2.57244 9.14134 2.48082 9.04048 2.40554C8.93963 2.33026 8.8267 2.27344 8.7017 2.23509C8.57813 2.19673 8.44673 2.17756 8.30753 2.17756C8.05611 2.17756 7.83097 2.24077 7.6321 2.36719C7.43466 2.49361 7.27841 2.67898 7.16335 2.9233C7.04972 3.16761 6.9929 3.46591 6.9929 3.81818C6.9929 4.1733 7.04972 4.47301 7.16335 4.71733C7.27841 4.96165 7.43537 5.14631 7.63423 5.27131C7.8331 5.39631 8.05682 5.45881 8.3054 5.45881C8.44318 5.45881 8.57386 5.44034 8.69744 5.40341C8.82244 5.36506 8.93537 5.30895 9.03622 5.23509C9.13707 5.16122 9.2223 5.07102 9.2919 4.96449C9.36293 4.85653 9.41193 4.73295 9.43892 4.59375L10.1037 4.59588C10.0682 4.81037 9.99929 5.00781 9.89702 5.18821C9.79616 5.36719 9.66619 5.52202 9.5071 5.6527C9.34943 5.78196 9.16903 5.8821 8.96591 5.95312C8.76278 6.02415 8.54119 6.05966 8.30114 6.05966C7.9233 6.05966 7.58665 5.97017 7.29119 5.79119C6.99574 5.6108 6.76278 5.35298 6.59233 5.01776C6.4233 4.68253 6.33878 4.28267 6.33878 3.81818C6.33878 3.35227 6.42401 2.95241 6.59446 2.61861C6.76491 2.28338 6.99787 2.02628 7.29332 1.8473C7.58878 1.6669 7.92472 1.5767 8.30114 1.5767C8.53267 1.5767 8.74858 1.61009 8.94886 1.67685C9.15057 1.74219 9.33168 1.83878 9.49219 1.96662C9.6527 2.09304 9.78551 2.24787 9.89062 2.43111C9.99574 2.61293 10.0668 2.82102 10.1037 3.0554ZM14.202 3.81818C14.202 4.28409 14.1168 4.68466 13.9463 5.01989C13.7759 5.35369 13.5422 5.6108 13.2453 5.79119C12.9499 5.97017 12.6139 6.05966 12.2375 6.05966C11.8597 6.05966 11.5223 5.97017 11.2254 5.79119C10.93 5.6108 10.697 5.35298 10.5266 5.01776C10.3561 4.68253 10.2709 4.28267 10.2709 3.81818C10.2709 3.35227 10.3561 2.95241 10.5266 2.61861C10.697 2.28338 10.93 2.02628 11.2254 1.8473C11.5223 1.6669 11.8597 1.5767 12.2375 1.5767C12.6139 1.5767 12.9499 1.6669 13.2453 1.8473C13.5422 2.02628 13.7759 2.28338 13.9463 2.61861C14.1168 2.95241 14.202 3.35227 14.202 3.81818ZM13.55 3.81818C13.55 3.46307 13.4925 3.16406 13.3774 2.92116C13.2638 2.67685 13.1075 2.49219 12.9087 2.36719C12.7112 2.24077 12.4875 2.17756 12.2375 2.17756C11.9861 2.17756 11.7617 2.24077 11.5642 2.36719C11.3668 2.49219 11.2105 2.67685 11.0955 2.92116C10.9818 3.16406 10.925 3.46307 10.925 3.81818C10.925 4.1733 10.9818 4.47301 11.0955 4.71733C11.2105 4.96023 11.3668 5.14489 11.5642 5.27131C11.7617 5.39631 11.9861 5.45881 12.2375 5.45881C12.4875 5.45881 12.7112 5.39631 12.9087 5.27131C13.1075 5.14489 13.2638 4.96023 13.3774 4.71733C13.4925 4.47301 13.55 4.1733 13.55 3.81818ZM14.5428 6V1.63636H15.2012V5.43324H17.1785V6H14.5428ZM17.4496 6V1.63636H18.1079V5.43324H20.0852V6H17.4496ZM20.3563 6V1.63636H23.0921V2.20312H21.0147V3.53267H22.9493V4.0973H21.0147V5.43324H23.1176V6H20.3563ZM27.1158 3.0554H26.451C26.4255 2.91335 26.3779 2.78835 26.3083 2.6804C26.2387 2.57244 26.1534 2.48082 26.0526 2.40554C25.9517 2.33026 25.8388 2.27344 25.7138 2.23509C25.5902 2.19673 25.4588 2.17756 25.3196 2.17756C25.0682 2.17756 24.8431 2.24077 24.6442 2.36719C24.4468 2.49361 24.2905 2.67898 24.1755 2.9233C24.0618 3.16761 24.005 3.46591 24.005 3.81818C24.005 4.1733 24.0618 4.47301 24.1755 4.71733C24.2905 4.96165 24.4475 5.14631 24.6463 5.27131C24.8452 5.39631 25.0689 5.45881 25.3175 5.45881C25.4553 5.45881 25.586 5.44034 25.7096 5.40341C25.8346 5.36506 25.9475 5.30895 26.0483 5.23509C26.1492 5.16122 26.2344 5.07102 26.304 4.96449C26.375 4.85653 26.424 4.73295 26.451 4.59375L27.1158 4.59588C27.0803 4.81037 27.0114 5.00781 26.9091 5.18821C26.8083 5.36719 26.6783 5.52202 26.5192 5.6527C26.3615 5.78196 26.1811 5.8821 25.978 5.95312C25.7749 6.02415 25.5533 6.05966 25.3132 6.05966C24.9354 6.05966 24.5988 5.97017 24.3033 5.79119C24.0078 5.6108 23.7749 5.35298 23.6044 5.01776C23.4354 4.68253 23.3509 4.28267 23.3509 3.81818C23.3509 3.35227 23.4361 2.95241 23.6066 2.61861C23.777 2.28338 24.01 2.02628 24.3054 1.8473C24.6009 1.6669 24.9368 1.5767 25.3132 1.5767C25.5448 1.5767 25.7607 1.61009 25.961 1.67685C26.1627 1.74219 26.3438 1.83878 26.5043 1.96662C26.6648 2.09304 26.7976 2.24787 26.9027 2.43111C27.0078 2.61293 27.0789 2.82102 27.1158 3.0554ZM27.2084 2.20312V1.63636H30.5856V2.20312H29.224V6H28.5678V2.20312H27.2084ZM34.4548 3.81818C34.4548 4.28409 34.3696 4.68466 34.1991 5.01989C34.0287 5.35369 33.795 5.6108 33.4981 5.79119C33.2027 5.97017 32.8667 6.05966 32.4903 6.05966C32.1125 6.05966 31.7751 5.97017 31.4782 5.79119C31.1828 5.6108 30.9498 5.35298 30.7794 5.01776C30.6089 4.68253 30.5237 4.28267 30.5237 3.81818C30.5237 3.35227 30.6089 2.95241 30.7794 2.61861C30.9498 2.28338 31.1828 2.02628 31.4782 1.8473C31.7751 1.6669 32.1125 1.5767 32.4903 1.5767C32.8667 1.5767 33.2027 1.6669 33.4981 1.8473C33.795 2.02628 34.0287 2.28338 34.1991 2.61861C34.3696 2.95241 34.4548 3.35227 34.4548 3.81818ZM33.8028 3.81818C33.8028 3.46307 33.7453 3.16406 33.6302 2.92116C33.5166 2.67685 33.3603 2.49219 33.1615 2.36719C32.964 2.24077 32.7403 2.17756 32.4903 2.17756C32.2389 2.17756 32.0145 2.24077 31.817 2.36719C31.6196 2.49219 31.4633 2.67685 31.3483 2.92116C31.2346 3.16406 31.1778 3.46307 31.1778 3.81818C31.1778 4.1733 31.2346 4.47301 31.3483 4.71733C31.4633 4.96023 31.6196 5.14489 31.817 5.27131C32.0145 5.39631 32.2389 5.45881 32.4903 5.45881C32.7403 5.45881 32.964 5.39631 33.1615 5.27131C33.3603 5.14489 33.5166 4.96023 33.6302 4.71733C33.7453 4.47301 33.8028 4.1733 33.8028 3.81818ZM34.7957 6V1.63636H36.3511C36.6891 1.63636 36.9697 1.6946 37.1927 1.81108C37.4171 1.92756 37.5847 2.08878 37.6955 2.29474C37.8063 2.49929 37.8617 2.7358 37.8617 3.00426C37.8617 3.27131 37.8056 3.50639 37.6934 3.70952C37.5826 3.91122 37.415 4.06818 37.1905 4.1804C36.9675 4.29261 36.687 4.34872 36.3489 4.34872H35.1707V3.78196H36.2893C36.5023 3.78196 36.6756 3.75142 36.8091 3.69034C36.9441 3.62926 37.0428 3.54048 37.1053 3.42401C37.1678 3.30753 37.1991 3.16761 37.1991 3.00426C37.1991 2.83949 37.1671 2.69673 37.1032 2.57599C37.0407 2.45526 36.942 2.36293 36.807 2.29901C36.6735 2.23366 36.4981 2.20099 36.2807 2.20099H35.454V6H34.7957ZM36.9498 4.03125L38.0279 6H37.2779L36.2211 4.03125H36.9498Z" fill="#EFEEEE"/>
<path d="M4.3125 5.07669L2.23372 6.30614L0 4.8589V2.37451L4.3125 5.07669Z" fill="#5BEAFE"/>
<path d="M4.30789 2.28656L0 4.86014V2.3747L2.25348 1L4.30789 2.28656Z" fill="#FF7C01"/>
<path fill-rule="evenodd" clip-rule="evenodd" d="M2.8559 4.1638L2.03125 3.64708L4.30852 2.28662V3.31861L2.8559 4.1638Z" fill="#E3528B"/>
<path fill-rule="evenodd" clip-rule="evenodd" d="M0 5.86245V4.85425L2.23368 6.30599L4.31248 5.07683V6.02746L2.23372 7.27219V7.27268L0 5.86245Z" fill="#0483FF"/>
</svg>
