<?xml version="1.0" encoding="UTF-8" standalone="no"?>
<!-- Generator: Adobe Illustrator 17.1.0, SVG Export Plug-In . SVG Version: 6.00 Build 0)  -->

<svg
   version="1.1"
   id="Capa_1"
   x="0px"
   y="0px"
   viewBox="0 0 221.519 221.519"
   style="enable-background:new 0 0 221.519 221.519;"
   xml:space="preserve"
   sodipodi:docname="hatIcon.svg"
   inkscape:version="1.4 (86a8ad7, 2024-10-11)"
   xmlns:inkscape="http://www.inkscape.org/namespaces/inkscape"
   xmlns:sodipodi="http://sodipodi.sourceforge.net/DTD/sodipodi-0.dtd"
   xmlns="http://www.w3.org/2000/svg"
   xmlns:svg="http://www.w3.org/2000/svg"><defs
   id="defs15" /><sodipodi:namedview
   id="namedview15"
   pagecolor="#ffffff"
   bordercolor="#000000"
   borderopacity="0.25"
   inkscape:showpageshadow="2"
   inkscape:pageopacity="0.0"
   inkscape:pagecheckerboard="0"
   inkscape:deskcolor="#d1d1d1"
   inkscape:zoom="3.6430284"
   inkscape:cx="110.7595"
   inkscape:cy="110.7595"
   inkscape:window-width="1920"
   inkscape:window-height="1009"
   inkscape:window-x="-8"
   inkscape:window-y="-8"
   inkscape:window-maximized="1"
   inkscape:current-layer="Capa_1" />
<path
   d="M220.812,154.589L214.77,172.9c-1.911,5.796-7.297,9.691-13.402,9.691H20.152c-6.104,0-11.489-3.895-13.402-9.69  l-6.042-18.313c-1.415-4.288-0.681-9.032,1.965-12.691c2.646-3.659,6.922-5.844,11.438-5.844h23.244v-32.585  c0-35.588,28.952-64.54,64.54-64.54h16.864c35.588,0,64.54,28.952,64.54,64.54v32.585h24.111c4.516,0,8.791,2.185,11.438,5.844  C221.493,145.556,222.227,150.3,220.812,154.589z"
   id="path1"
   style="fill:#ffffff" />
<g
   id="g1">
</g>
<g
   id="g2">
</g>
<g
   id="g3">
</g>
<g
   id="g4">
</g>
<g
   id="g5">
</g>
<g
   id="g6">
</g>
<g
   id="g7">
</g>
<g
   id="g8">
</g>
<g
   id="g9">
</g>
<g
   id="g10">
</g>
<g
   id="g11">
</g>
<g
   id="g12">
</g>
<g
   id="g13">
</g>
<g
   id="g14">
</g>
<g
   id="g15">
</g>
</svg>
