<svg width="26" height="25" viewBox="0 0 26 25" fill="none" xmlns="http://www.w3.org/2000/svg">
<path d="M6.5 11.4583H10.8333" stroke="white" stroke-width="1.25" stroke-linecap="round" stroke-linejoin="round"/>
<path d="M8.6665 9.375V13.5417" stroke="white" stroke-width="1.25" stroke-linecap="round" stroke-linejoin="round"/>
<path d="M16.25 12.5H16.26" stroke="white" stroke-width="1.25" stroke-linecap="round" stroke-linejoin="round"/>
<path d="M19.5 10.4167H19.51" stroke="white" stroke-width="1.25" stroke-linecap="round" stroke-linejoin="round"/>
<path d="M18.7632 5.20825H7.2365C6.16431 5.20849 5.13027 5.59094 4.33429 6.28165C3.53831 6.97237 3.0369 7.92231 2.927 8.94784C2.9205 9.002 2.91617 9.05304 2.90859 9.10617C2.82084 9.80825 2.1665 15.0583 2.1665 16.6666C2.1665 17.4954 2.50891 18.2902 3.11841 18.8763C3.7279 19.4623 4.55455 19.7916 5.4165 19.7916C6.49984 19.7916 7.0415 19.2708 7.58317 18.7499L9.115 17.277C9.52124 16.8863 10.0722 16.6667 10.6468 16.6666H15.3528C15.9274 16.6667 16.4784 16.8863 16.8847 17.277L18.4165 18.7499C18.9582 19.2708 19.4998 19.7916 20.5832 19.7916C21.4451 19.7916 22.2718 19.4623 22.8813 18.8763C23.4908 18.2902 23.8332 17.4954 23.8332 16.6666C23.8332 15.0572 23.1788 9.80825 23.0911 9.10617C23.0835 9.05408 23.0792 9.002 23.0727 8.94888C22.963 7.92316 22.4617 6.97297 21.6657 6.28204C20.8697 5.59111 19.8355 5.20852 18.7632 5.20825Z" stroke="white" stroke-width="1.25" stroke-linecap="round" stroke-linejoin="round"/>
</svg>
