<svg width="76" height="37" viewBox="0 0 76 37" fill="none" xmlns="http://www.w3.org/2000/svg">
<path d="M12.8397 8V2.18182H14.9135C15.3662 2.18182 15.7412 2.2642 16.0385 2.42898C16.3359 2.59375 16.5584 2.81913 16.7062 3.10511C16.8539 3.3892 16.9277 3.70928 16.9277 4.06534C16.9277 4.4233 16.8529 4.74527 16.7033 5.03125C16.5556 5.31534 16.3321 5.54072 16.0329 5.70739C15.7355 5.87216 15.3615 5.95455 14.9107 5.95455H13.4846V5.21023H14.8312C15.1171 5.21023 15.3491 5.16098 15.5272 5.0625C15.7052 4.96212 15.8359 4.82576 15.9192 4.65341C16.0026 4.48106 16.0442 4.28504 16.0442 4.06534C16.0442 3.84564 16.0026 3.65057 15.9192 3.48011C15.8359 3.30966 15.7043 3.17614 15.5243 3.07955C15.3463 2.98295 15.1115 2.93466 14.8198 2.93466H13.7175V8H12.8397ZM19.5121 8.08807C19.103 8.08807 18.746 7.99432 18.441 7.80682C18.1361 7.61932 17.8994 7.35701 17.7308 7.01989C17.5622 6.68277 17.478 6.28883 17.478 5.83807C17.478 5.38542 17.5622 4.98958 17.7308 4.65057C17.8994 4.31155 18.1361 4.0483 18.441 3.8608C18.746 3.6733 19.103 3.57955 19.5121 3.57955C19.9212 3.57955 20.2782 3.6733 20.5831 3.8608C20.888 4.0483 21.1247 4.31155 21.2933 4.65057C21.4619 4.98958 21.5462 5.38542 21.5462 5.83807C21.5462 6.28883 21.4619 6.68277 21.2933 7.01989C21.1247 7.35701 20.888 7.61932 20.5831 7.80682C20.2782 7.99432 19.9212 8.08807 19.5121 8.08807ZM19.5149 7.375C19.7801 7.375 19.9997 7.30492 20.174 7.16477C20.3482 7.02462 20.477 6.83807 20.5604 6.60511C20.6456 6.37216 20.6882 6.11553 20.6882 5.83523C20.6882 5.55682 20.6456 5.30114 20.5604 5.06818C20.477 4.83333 20.3482 4.64489 20.174 4.50284C19.9997 4.3608 19.7801 4.28977 19.5149 4.28977C19.2479 4.28977 19.0263 4.3608 18.8501 4.50284C18.6759 4.64489 18.5462 4.83333 18.4609 5.06818C18.3776 5.30114 18.3359 5.55682 18.3359 5.83523C18.3359 6.11553 18.3776 6.37216 18.4609 6.60511C18.5462 6.83807 18.6759 7.02462 18.8501 7.16477C19.0263 7.30492 19.2479 7.375 19.5149 7.375ZM23.1475 8L21.8634 3.63636H22.7413L23.5964 6.84091H23.639L24.4969 3.63636H25.3748L26.2271 6.8267H26.2697L27.1191 3.63636H27.9969L26.7157 8H25.8492L24.9629 4.84943H24.8975L24.0112 8H23.1475ZM30.3909 8.08807C29.961 8.08807 29.5907 7.99621 29.2801 7.8125C28.9714 7.62689 28.7328 7.36648 28.5642 7.03125C28.3976 6.69413 28.3142 6.29924 28.3142 5.84659C28.3142 5.39962 28.3976 5.00568 28.5642 4.66477C28.7328 4.32386 28.9676 4.05777 29.2688 3.86648C29.5718 3.67519 29.926 3.57955 30.3313 3.57955C30.5775 3.57955 30.8161 3.62027 31.0472 3.7017C31.2782 3.78314 31.4856 3.91098 31.6693 4.08523C31.853 4.25947 31.9979 4.4858 32.104 4.7642C32.2101 5.04072 32.2631 5.37689 32.2631 5.77273V6.07386H28.7943V5.4375H31.4307C31.4307 5.21402 31.3852 5.0161 31.2943 4.84375C31.2034 4.66951 31.0756 4.5322 30.9108 4.43182C30.7479 4.33144 30.5566 4.28125 30.3369 4.28125C30.0983 4.28125 29.89 4.33996 29.7119 4.45739C29.5358 4.57292 29.3994 4.72443 29.3029 4.91193C29.2082 5.09754 29.1608 5.29924 29.1608 5.51705V6.0142C29.1608 6.30587 29.2119 6.55398 29.3142 6.75852C29.4184 6.96307 29.5633 7.11932 29.7489 7.22727C29.9345 7.33333 30.1513 7.38636 30.3994 7.38636C30.5604 7.38636 30.7072 7.36364 30.8398 7.31818C30.9724 7.27083 31.0869 7.20076 31.1835 7.10795C31.2801 7.01515 31.354 6.90057 31.4051 6.7642L32.2091 6.90909C32.1447 7.14583 32.0292 7.35322 31.8625 7.53125C31.6977 7.70739 31.4904 7.8447 31.2404 7.94318C30.9922 8.03977 30.7091 8.08807 30.3909 8.08807ZM33.0456 8V3.63636H33.8666V4.32955H33.912C33.9916 4.0947 34.1317 3.91004 34.3325 3.77557C34.5351 3.6392 34.7643 3.57102 35.02 3.57102C35.073 3.57102 35.1355 3.57292 35.2075 3.5767C35.2813 3.58049 35.3391 3.58523 35.3808 3.59091V4.40341C35.3467 4.39394 35.2861 4.38352 35.199 4.37216C35.1118 4.3589 35.0247 4.35227 34.9376 4.35227C34.7368 4.35227 34.5579 4.39489 34.4007 4.48011C34.2454 4.56345 34.1223 4.67992 34.0313 4.82955C33.9404 4.97727 33.895 5.14583 33.895 5.33523V8H33.0456ZM37.6803 8.08807C37.2504 8.08807 36.8801 7.99621 36.5695 7.8125C36.2608 7.62689 36.0222 7.36648 35.8536 7.03125C35.6869 6.69413 35.6036 6.29924 35.6036 5.84659C35.6036 5.39962 35.6869 5.00568 35.8536 4.66477C36.0222 4.32386 36.257 4.05777 36.5581 3.86648C36.8612 3.67519 37.2153 3.57955 37.6206 3.57955C37.8669 3.57955 38.1055 3.62027 38.3365 3.7017C38.5676 3.78314 38.775 3.91098 38.9587 4.08523C39.1424 4.25947 39.2873 4.4858 39.3934 4.7642C39.4994 5.04072 39.5525 5.37689 39.5525 5.77273V6.07386H36.0837V5.4375H38.7201C38.7201 5.21402 38.6746 5.0161 38.5837 4.84375C38.4928 4.66951 38.365 4.5322 38.2002 4.43182C38.0373 4.33144 37.846 4.28125 37.6263 4.28125C37.3877 4.28125 37.1794 4.33996 37.0013 4.45739C36.8252 4.57292 36.6888 4.72443 36.5922 4.91193C36.4975 5.09754 36.4502 5.29924 36.4502 5.51705V6.0142C36.4502 6.30587 36.5013 6.55398 36.6036 6.75852C36.7078 6.96307 36.8526 7.11932 37.0383 7.22727C37.2239 7.33333 37.4407 7.38636 37.6888 7.38636C37.8498 7.38636 37.9966 7.36364 38.1292 7.31818C38.2617 7.27083 38.3763 7.20076 38.4729 7.10795C38.5695 7.01515 38.6434 6.90057 38.6945 6.7642L39.4985 6.90909C39.4341 7.14583 39.3186 7.35322 39.1519 7.53125C38.9871 7.70739 38.7797 7.8447 38.5297 7.94318C38.2816 8.03977 37.9985 8.08807 37.6803 8.08807ZM41.9685 8.08523C41.6162 8.08523 41.3018 7.99527 41.0253 7.81534C40.7506 7.63352 40.5347 7.375 40.3775 7.03977C40.2222 6.70265 40.1446 6.2983 40.1446 5.8267C40.1446 5.35511 40.2232 4.9517 40.3804 4.61648C40.5395 4.28125 40.7573 4.02462 41.0338 3.84659C41.3103 3.66856 41.6238 3.57955 41.9741 3.57955C42.245 3.57955 42.4628 3.625 42.6275 3.71591C42.7942 3.80492 42.923 3.90909 43.0139 4.02841C43.1067 4.14773 43.1787 4.25284 43.2298 4.34375H43.281V2.18182H44.1304V8H43.3008V7.32102H43.2298C43.1787 7.41383 43.1048 7.51989 43.0082 7.6392C42.9135 7.75852 42.7828 7.86269 42.6162 7.9517C42.4495 8.04072 42.2336 8.08523 41.9685 8.08523ZM42.156 7.3608C42.4003 7.3608 42.6067 7.2964 42.7753 7.16761C42.9457 7.03693 43.0745 6.85606 43.1616 6.625C43.2506 6.39394 43.2952 6.125 43.2952 5.81818C43.2952 5.51515 43.2516 5.25 43.1645 5.02273C43.0774 4.79545 42.9495 4.61837 42.781 4.49148C42.6124 4.36458 42.4041 4.30114 42.156 4.30114C41.9003 4.30114 41.6872 4.36742 41.5167 4.5C41.3463 4.63258 41.2175 4.81345 41.1304 5.04261C41.0452 5.27178 41.0025 5.5303 41.0025 5.81818C41.0025 6.10985 41.0461 6.37216 41.1332 6.60511C41.2203 6.83807 41.3491 7.02273 41.5196 7.15909C41.6919 7.29356 41.9041 7.3608 42.156 7.3608ZM47.2081 8V2.18182H48.0575V4.34375H48.1087C48.1579 4.25284 48.2289 4.14773 48.3217 4.02841C48.4146 3.90909 48.5433 3.80492 48.7081 3.71591C48.8729 3.625 49.0907 3.57955 49.3615 3.57955C49.7138 3.57955 50.0282 3.66856 50.3047 3.84659C50.5812 4.02462 50.7981 4.28125 50.9553 4.61648C51.1144 4.9517 51.1939 5.35511 51.1939 5.8267C51.1939 6.2983 51.1153 6.70265 50.9581 7.03977C50.8009 7.375 50.585 7.63352 50.3104 7.81534C50.0358 7.99527 49.7223 8.08523 49.37 8.08523C49.1049 8.08523 48.888 8.04072 48.7195 7.9517C48.5528 7.86269 48.4221 7.75852 48.3274 7.6392C48.2327 7.51989 48.1598 7.41383 48.1087 7.32102H48.0377V8H47.2081ZM48.0405 5.81818C48.0405 6.125 48.085 6.39394 48.174 6.625C48.263 6.85606 48.3918 7.03693 48.5604 7.16761C48.7289 7.2964 48.9354 7.3608 49.1797 7.3608C49.4335 7.3608 49.6456 7.29356 49.8161 7.15909C49.9865 7.02273 50.1153 6.83807 50.2024 6.60511C50.2914 6.37216 50.336 6.10985 50.336 5.81818C50.336 5.5303 50.2924 5.27178 50.2053 5.04261C50.12 4.81345 49.9913 4.63258 49.8189 4.5C49.6485 4.36742 49.4354 4.30114 49.1797 4.30114C48.9335 4.30114 48.7252 4.36458 48.5547 4.49148C48.3861 4.61837 48.2583 4.79545 48.1712 5.02273C48.0841 5.25 48.0405 5.51515 48.0405 5.81818ZM52.3762 9.63636C52.2493 9.63636 52.1338 9.62595 52.0296 9.60511C51.9255 9.58617 51.8478 9.56534 51.7967 9.54261L52.0012 8.84659C52.1565 8.88826 52.2948 8.90625 52.416 8.90057C52.5372 8.89489 52.6442 8.84943 52.737 8.7642C52.8317 8.67898 52.9151 8.53977 52.987 8.34659L53.0921 8.05682L51.4956 3.63636H52.4046L53.5098 7.02273H53.5552L54.6603 3.63636H55.5723L53.774 8.58239C53.6906 8.80966 53.5846 9.00189 53.4558 9.15909C53.327 9.31818 53.1736 9.4375 52.9956 9.51705C52.8175 9.59659 52.6111 9.63636 52.3762 9.63636Z" fill="#474747"/>
<path d="M54 31.4601C54.5515 31.0875 59.4364 28.7772 67 17.1599L59.9879 34.1599L59.3576 31.068L54 31.4601Z" stroke="#474747" stroke-width="1.2"/>
<path d="M63 23.1599L57.8508 18.1599H54L61.1518 25.1599" stroke="#474747" stroke-width="1.2"/>
<path d="M69.2442 19.949C69.4028 20.5524 69.5262 21.0402 69.6143 21.4125C69.7452 21.9684 69.7048 21.9812 69.4932 21.451C69.1236 20.5236 68.6765 19.5717 68.1519 18.5954C67.8187 17.9752 67.4708 17.3829 66.8013 17.1557C66.1059 16.9188 65.3203 17.0953 64.6255 17.2527C63.7379 17.4544 62.9278 17.6401 62.1954 17.8097C61.6603 17.934 61.6465 17.8908 62.1539 17.6802C62.8993 17.3712 63.7372 16.9894 64.6676 16.5347C64.9206 16.4106 65.1867 16.2506 65.466 16.0549C66.1122 15.6027 66.4668 15.1451 66.4539 14.3536C66.4476 13.9474 66.4008 13.5455 66.3136 13.148C66.0883 12.124 65.8446 11.1598 65.5825 10.2553C65.4575 9.82232 65.4911 9.80958 65.6832 10.2171C66.0995 11.0979 66.5641 12.0679 67.0768 13.1273C67.1848 13.3506 67.3768 13.6368 67.6525 13.9861C68.0391 14.4775 68.5439 14.715 69.1668 14.6987C70.3294 14.6685 71.8156 14.1895 72.969 13.8882C73.4887 13.7516 73.5059 13.7988 73.0206 14.0299C72.429 14.312 71.7828 14.6261 71.0822 14.972C69.9649 15.5241 68.6881 16.0442 68.8201 17.5239C68.8932 18.3434 69.0345 19.1517 69.2442 19.949Z" fill="#474747"/>
<path d="M1.6 17.352H3.472V27.208H9.216V29H1.6V17.352ZM13.3581 24.808C13.3581 25.2667 13.4755 25.688 13.7101 26.072C13.9555 26.4453 14.2755 26.7493 14.6701 26.984C15.0648 27.208 15.5075 27.32 15.9981 27.32C16.5101 27.32 16.9688 27.208 17.3741 26.984C17.7795 26.7493 18.0995 26.4453 18.3341 26.072C18.5688 25.688 18.6861 25.2667 18.6861 24.808V17.352H20.5261V24.856C20.5261 25.6987 20.3235 26.4453 19.9181 27.096C19.5128 27.736 18.9688 28.2373 18.2861 28.6C17.6035 28.952 16.8408 29.128 15.9981 29.128C15.1661 29.128 14.4088 28.952 13.7261 28.6C13.0435 28.2373 12.4995 27.736 12.0941 27.096C11.6995 26.4453 11.5021 25.6987 11.5021 24.856V17.352H13.3581V24.808ZM23.5375 29V16.936H23.5535L29.8255 25.816L29.0255 25.64L35.2655 16.936H35.2975V29H33.4415V21.144L33.5695 22.104L29.3615 28.056H29.3295L25.0255 22.104L25.3455 21.224V29H23.5375ZM38.4906 17.352H40.3626V29H38.4906V17.352ZM42.7368 17.352H50.5288V19.144H47.5208V29H45.6648V19.144H42.7368V17.352Z" fill="#474747"/>
</svg>
