<svg width="24" height="24" viewBox="0 0 24 24" fill="none" xmlns="http://www.w3.org/2000/svg">
<g clip-path="url(#clip0_2025_267)">
<g clip-path="url(#clip1_2025_267)">
<path d="M10.017 1.81395C10.0598 1.58456 10.1815 1.37737 10.3611 1.22827C10.5406 1.07917 10.7666 0.997559 11 0.997559C11.2333 0.997559 11.4593 1.07917 11.6389 1.22827C11.8184 1.37737 11.9401 1.58456 11.983 1.81395L13.034 7.37195C13.1086 7.7671 13.3006 8.13057 13.585 8.41492C13.8693 8.69928 14.2328 8.89131 14.628 8.96595L20.186 10.017C20.4153 10.0598 20.6225 10.1815 20.7716 10.3611C20.9207 10.5406 21.0023 10.7666 21.0023 11C21.0023 11.2333 20.9207 11.4593 20.7716 11.6389C20.6225 11.8184 20.4153 11.9401 20.186 11.983L14.628 13.034C14.2328 13.1086 13.8693 13.3006 13.585 13.585C13.3006 13.8693 13.1086 14.2328 13.034 14.628L11.983 20.186C11.9401 20.4153 11.8184 20.6225 11.6389 20.7716C11.4593 20.9207 11.2333 21.0023 11 21.0023C10.7666 21.0023 10.5406 20.9207 10.3611 20.7716C10.1815 20.6225 10.0598 20.4153 10.017 20.186L8.96595 14.628C8.89131 14.2328 8.69928 13.8693 8.41492 13.585C8.13057 13.3006 7.7671 13.1086 7.37195 13.034L1.81395 11.983C1.58456 11.9401 1.37737 11.8184 1.22827 11.6389C1.07917 11.4593 0.997559 11.2333 0.997559 11C0.997559 10.7666 1.07917 10.5406 1.22827 10.3611C1.37737 10.1815 1.58456 10.0598 1.81395 10.017L7.37195 8.96595C7.7671 8.89131 8.13057 8.69928 8.41492 8.41492C8.69928 8.13057 8.89131 7.7671 8.96595 7.37195L10.017 1.81395Z" stroke="white" stroke-width="1.25" stroke-linecap="round" stroke-linejoin="round"/>
<path d="M19 1V5" stroke="white" stroke-width="1.25" stroke-linecap="round" stroke-linejoin="round"/>
<path d="M21 3H17" stroke="white" stroke-width="1.25" stroke-linecap="round" stroke-linejoin="round"/>
<path d="M3 21C4.10457 21 5 20.1046 5 19C5 17.8954 4.10457 17 3 17C1.89543 17 1 17.8954 1 19C1 20.1046 1.89543 21 3 21Z" stroke="white" stroke-width="1.25" stroke-linecap="round" stroke-linejoin="round"/>
</g>
</g>
<defs>
<clipPath id="clip0_2025_267">
<rect width="24" height="24" fill="white"/>
</clipPath>
<clipPath id="clip1_2025_267">
<rect width="24" height="24" fill="white" transform="translate(0 -1)"/>
</clipPath>
</defs>
</svg>
