<svg width="24" height="24" viewBox="0 0 24 24" fill="none" xmlns="http://www.w3.org/2000/svg">
<path d="M16 2H4C2.89543 2 2 2.89543 2 4V6C2 7.10457 2.89543 8 4 8H16C17.1046 8 18 7.10457 18 6V4C18 2.89543 17.1046 2 16 2Z" stroke="white" stroke-width="1.25" stroke-linecap="round" stroke-linejoin="round"/>
<path d="M10 16V14C10 13.4696 10.2107 12.9609 10.5858 12.5858C10.9609 12.2107 11.4696 12 12 12H20C20.5304 12 21.0391 11.7893 21.4142 11.4142C21.7893 11.0391 22 10.5304 22 10V7C22 6.46957 21.7893 5.96086 21.4142 5.58579C21.0391 5.21071 20.5304 5 20 5H18" stroke="white" stroke-width="1.25" stroke-linecap="round" stroke-linejoin="round"/>
<path d="M11 16H9C8.44772 16 8 16.4477 8 17V21C8 21.5523 8.44772 22 9 22H11C11.5523 22 12 21.5523 12 21V17C12 16.4477 11.5523 16 11 16Z" stroke="white" stroke-width="1.25" stroke-linecap="round" stroke-linejoin="round"/>
</svg>
